<svg width="7" height="12" viewBox="0 0 7 12" fill="none" xmlns="http://www.w3.org/2000/svg">
<path d="M6.29244 9.46202L2.41244 5.58202L6.29244 1.70202C6.38503 1.60944 6.45847 1.49953 6.50857 1.37856C6.55868 1.2576 6.58447 1.12795 6.58447 0.997021C6.58447 0.86609 6.55868 0.736442 6.50857 0.615478C6.45847 0.494513 6.38503 0.384603 6.29244 0.292021C6.19986 0.199439 6.08995 0.125999 5.96899 0.0758939C5.84802 0.0257889 5.71837 -9.75508e-10 5.58744 0C5.45651 9.7551e-10 5.32687 0.0257889 5.2059 0.0758939C5.08494 0.125999 4.97503 0.199439 4.88244 0.292021L0.292444 4.88202C0.199741 4.97453 0.126193 5.08442 0.0760117 5.2054C0.0258302 5.32637 0 5.45605 0 5.58702C0 5.71799 0.0258302 5.84767 0.0760117 5.96865C0.126193 6.08962 0.199741 6.19951 0.292444 6.29202L4.88244 10.882C5.27244 11.272 5.90244 11.272 6.29244 10.882C6.67244 10.492 6.68244 9.85202 6.29244 9.46202Z" fill="white"/>
</svg>
