<svg width="7" height="12" viewBox="0 0 7 12" fill="none" xmlns="http://www.w3.org/2000/svg">
<path d="M0.292028 1.71254L4.17203 5.59254L0.292028 9.47254C0.199447 9.56512 0.126007 9.67503 0.075902 9.796C0.0257969 9.91696 7.62939e-06 10.0466 7.62939e-06 10.1775C7.62939e-06 10.3085 0.0257969 10.4381 0.075902 10.5591C0.126007 10.68 0.199447 10.79 0.292028 10.8825C0.38461 10.9751 0.494521 11.0486 0.615485 11.0987C0.736449 11.1488 0.866098 11.1746 0.997028 11.1746C1.12796 11.1746 1.25761 11.1488 1.37857 11.0987C1.49954 11.0486 1.60945 10.9751 1.70203 10.8825L6.29203 6.29254C6.38473 6.20003 6.45828 6.09014 6.50846 5.96916C6.55864 5.84819 6.58447 5.71851 6.58447 5.58754C6.58447 5.45657 6.55864 5.32689 6.50846 5.20592C6.45828 5.08494 6.38473 4.97505 6.29203 4.88254L1.70203 0.292541C1.31203 -0.0974598 0.682028 -0.0974598 0.292028 0.292541C-0.0879717 0.682541 -0.0979714 1.32254 0.292028 1.71254Z" fill="white"/>
</svg>
