<svg width="20" height="19" viewBox="0 0 20 19" fill="none" xmlns="http://www.w3.org/2000/svg">
<path d="M17.2222 1.53404H14.4444V0.983817C14.4444 0.837889 14.3859 0.697937 14.2817 0.59475C14.1775 0.491563 14.0362 0.433594 13.8889 0.433594C13.7415 0.433594 13.6002 0.491563 13.4961 0.59475C13.3919 0.697937 13.3333 0.837889 13.3333 0.983817V1.53404H6.66667V0.983817C6.66667 0.837889 6.60814 0.697937 6.50395 0.59475C6.39976 0.491563 6.25845 0.433594 6.11111 0.433594C5.96377 0.433594 5.82246 0.491563 5.71827 0.59475C5.61409 0.697937 5.55556 0.837889 5.55556 0.983817V1.53404H2.77778C2.04129 1.53477 1.33518 1.82485 0.814404 2.34063C0.293629 2.85641 0.00073538 3.55574 0 4.28516V15.2896C0.000735387 16.0191 0.293629 16.7184 0.814404 17.2342C1.33518 17.7499 2.04129 18.04 2.77778 18.0408H17.2222C17.9587 18.04 18.6648 17.7499 19.1856 17.2342C19.7064 16.7184 19.9993 16.0191 20 15.2896V4.28516C19.9993 3.55574 19.7064 2.85641 19.1856 2.34063C18.6648 1.82485 17.9587 1.53477 17.2222 1.53404ZM18.8889 15.2896C18.8884 15.7273 18.7127 16.1469 18.4002 16.4564C18.0878 16.7658 17.6641 16.9399 17.2222 16.9403H2.77778C2.33589 16.9399 1.91222 16.7658 1.59975 16.4564C1.28729 16.1469 1.11155 15.7273 1.11111 15.2896V7.03628H18.8889V15.2896ZM18.8889 5.93583H1.11111V4.28516C1.11155 3.84751 1.28729 3.42791 1.59975 3.11844C1.91222 2.80898 2.33589 2.63493 2.77778 2.63449H5.55556V3.18471C5.55556 3.33064 5.61409 3.47059 5.71827 3.57378C5.82246 3.67697 5.96377 3.73494 6.11111 3.73494C6.25845 3.73494 6.39976 3.67697 6.50395 3.57378C6.60814 3.47059 6.66667 3.33064 6.66667 3.18471V2.63449H13.3333V3.18471C13.3333 3.33064 13.3919 3.47059 13.4961 3.57378C13.6002 3.67697 13.7415 3.73494 13.8889 3.73494C14.0362 3.73494 14.1775 3.67697 14.2817 3.57378C14.3859 3.47059 14.4444 3.33064 14.4444 3.18471V2.63449H17.2222C17.6641 2.63493 18.0878 2.80898 18.4002 3.11844C18.7127 3.42791 18.8884 3.84751 18.8889 4.28516V5.93583Z" fill="url(#paint0_linear)"/>
<defs>
<linearGradient id="paint0_linear" x1="10" y1="0.433594" x2="10" y2="18.0408" gradientUnits="userSpaceOnUse">
<stop stop-color="#FCBF30"/>
<stop offset="1" stop-color="#FF8730"/>
</linearGradient>
</defs>
</svg>
