<svg width="14" height="14" viewBox="0 0 14 14" fill="none" xmlns="http://www.w3.org/2000/svg">
<path d="M7.61525 0.176392H6.51677C6.41913 0.176392 6.3703 0.226936 6.3703 0.328026V13.6718C6.3703 13.7729 6.41913 13.8235 6.51677 13.8235H7.61525C7.7129 13.8235 7.76172 13.7729 7.76172 13.6718V0.328026C7.76172 0.226936 7.7129 0.176392 7.61525 0.176392Z" fill="white"/>
<path d="M13.2173 6.27954H0.914274C0.816631 6.27954 0.76781 6.33009 0.76781 6.43117V7.56843C0.76781 7.66952 0.816631 7.72006 0.914274 7.72006H13.2173C13.3149 7.72006 13.3638 7.66952 13.3638 7.56843V6.43117C13.3638 6.33009 13.3149 6.27954 13.2173 6.27954Z" fill="white"/>
</svg>
