<svg width="6" height="10" viewBox="0 0 6 10" fill="none" xmlns="http://www.w3.org/2000/svg">
<path d="M1.8843 7.0716C1.89235 6.59267 1.94668 6.21436 2.0473 5.93666C2.14791 5.65896 2.35317 5.35107 2.66306 5.01301L3.4539 4.19802C3.79197 3.81568 3.961 3.40517 3.961 2.96649C3.961 2.5439 3.85033 2.21388 3.62897 1.97643C3.40762 1.73495 3.08565 1.61421 2.66306 1.61421C2.25255 1.61421 1.92253 1.72288 1.67301 1.94021C1.42348 2.15754 1.29872 2.44932 1.29872 2.81556H0.181885C0.189934 2.16357 0.42135 1.63836 0.876132 1.23992C1.33494 0.837462 1.93058 0.63623 2.66306 0.63623C3.42372 0.63623 4.01534 0.841486 4.43792 1.252C4.86453 1.65848 5.07784 2.21791 5.07784 2.93026C5.07784 3.63457 4.75184 4.32882 4.09985 5.01301L3.44183 5.66499C3.14803 5.99099 3.00113 6.45986 3.00113 7.0716H1.8843ZM1.836 8.98531C1.836 8.8042 1.89034 8.65328 1.999 8.53254C2.11169 8.40777 2.2767 8.34539 2.49403 8.34539C2.71136 8.34539 2.87637 8.40777 2.98906 8.53254C3.10175 8.65328 3.15809 8.8042 3.15809 8.98531C3.15809 9.16642 3.10175 9.31734 2.98906 9.43808C2.87637 9.55479 2.71136 9.61315 2.49403 9.61315C2.2767 9.61315 2.11169 9.55479 1.999 9.43808C1.89034 9.31734 1.836 9.16642 1.836 8.98531Z" fill="#44342B"/>
</svg>
