<?xml version="1.0" encoding="utf-8"?><svg xmlns="http://www.w3.org/2000/svg" xmlns:xlink="http://www.w3.org/1999/xlink"><symbol fill="none" viewBox="0 0 7 12" id="icons--arrow-left" xmlns="http://www.w3.org/2000/svg"><path d="M6.292 9.462l-3.88-3.88 3.88-3.88a.997.997 0 1 0-1.41-1.41l-4.59 4.59a.996.996 0 0 0 0 1.41l4.59 4.59c.39.39 1.02.39 1.41 0 .38-.39.39-1.03 0-1.42z" fill="#fff"/></symbol><symbol fill="none" viewBox="0 0 7 12" id="icons--arrow-right" xmlns="http://www.w3.org/2000/svg"><path d="M.292 1.713l3.88 3.88-3.88 3.88a.997.997 0 1 0 1.41 1.41l4.59-4.59a.996.996 0 0 0 0-1.41L1.702.293a.996.996 0 0 0-1.41 0c-.38.39-.39 1.03 0 1.42z" fill="#fff"/></symbol><symbol fill="none" viewBox="0 0 20 19" id="icons--calendar" xmlns="http://www.w3.org/2000/svg"><path d="M17.222 1.534h-2.778v-.55a.547.547 0 0 0-.162-.39.558.558 0 0 0-.949.39v.55H6.667v-.55a.548.548 0 0 0-.163-.39.558.558 0 0 0-.948.39v.55H2.778c-.737 0-1.443.29-1.964.807A2.74 2.74 0 0 0 0 4.285V15.29c0 .73.294 1.428.814 1.944a2.796 2.796 0 0 0 1.964.807h14.444a2.796 2.796 0 0 0 1.964-.807A2.74 2.74 0 0 0 20 15.29V4.285a2.74 2.74 0 0 0-.814-1.944 2.794 2.794 0 0 0-1.964-.807zM18.89 15.29c0 .437-.176.857-.489 1.166-.312.31-.736.484-1.178.484H2.778c-.442 0-.866-.174-1.178-.484a1.645 1.645 0 0 1-.489-1.166V7.036H18.89v8.254zm0-9.354H1.11v-1.65c0-.438.176-.858.489-1.168a1.68 1.68 0 0 1 1.178-.484h2.778v.55c0 .147.058.287.162.39a.558.558 0 0 0 .949-.39v-.55h6.666v.55c0 .147.059.287.163.39a.558.558 0 0 0 .948-.39v-.55h2.778c.442 0 .866.175 1.178.484.313.31.488.73.489 1.167v1.65z" fill="url(#ca)"/><defs><linearGradient id="ca" x1="10" y1=".434" x2="10" y2="18.041" gradientUnits="userSpaceOnUse"><stop stop-color="#FCBF30"/><stop offset="1" stop-color="#FF8730"/></linearGradient></defs></symbol><symbol viewBox="0 0 14 11" id="icons--check" xmlns="http://www.w3.org/2000/svg"><path d="M4.9 10.6c-.2 0-.5-.1-.7-.3L.9 7.2c-.4-.4-.4-1-.1-1.4.4-.4 1-.4 1.4-.1l2.6 2.4L12 .7c.4-.4 1-.4 1.4 0 .4.4.4 1 0 1.4l-7.8 8.3c-.2.1-.4.2-.7.2z"/></symbol><symbol fill="#fff" viewBox="0 0 100 100" id="icons--checkbox" xmlns="http://www.w3.org/2000/svg"><path style="text-indent:0;text-transform:none;block-progression:tb" d="M74.984 26.078l-3.53 3.563c-9.735 9.755-20.12 20.828-29.845 30.718L28.172 49.297l-3.875-3.188-6.344 7.72 3.844 3.187 17 14 3.531 2.906 3.188-3.219c10.769-10.792 22.435-23.413 33-34l3.53-3.562-7.062-7.063z" fill="#FFF" overflow="visible" color="#000"/></symbol><symbol fill="none" viewBox="0 0 16 16" id="icons--close" xmlns="http://www.w3.org/2000/svg"><path d="M15.213.929L8.487 7.655l6.398 6.398-.69.69-6.398-6.398-6.726 6.726-.64-.64 6.726-6.726-6.43-6.431.689-.69 6.431 6.431L14.573.29l.64.64z" fill="#999"/></symbol><symbol fill="none" viewBox="0 0 8 6" id="icons--dropdown" xmlns="http://www.w3.org/2000/svg"><path d="M4.416 5.376a.5.5 0 0 1-.832 0L.518.777A.5.5 0 0 1 .934 0h6.132a.5.5 0 0 1 .416.777L4.416 5.376z" fill="#44342B"/></symbol><symbol fill="none" viewBox="0 0 3 10" id="icons--info" xmlns="http://www.w3.org/2000/svg"><path d="M2.81 9.935H.983L.876 3.484H2.81v6.451zM.876 1.355c0-.274.09-.498.271-.675.185-.176.435-.264.75-.264.31 0 .559.088.743.264a.891.891 0 0 1 .278.674.889.889 0 0 1-.284.68c-.185.177-.43.265-.737.265s-.555-.088-.744-.264a.899.899 0 0 1-.277-.68z" fill="#000" fill-opacity=".5"/></symbol><symbol fill="none" viewBox="0 0 14 14" id="icons--plus" xmlns="http://www.w3.org/2000/svg"><path d="M7.615.176H6.517c-.098 0-.147.05-.147.152v13.344c0 .1.05.151.147.151h1.098c.098 0 .147-.05.147-.151V.328c0-.101-.05-.152-.147-.152z" fill="#fff"/><path d="M13.217 6.28H.914c-.097 0-.146.05-.146.151v1.137c0 .102.049.152.146.152h12.303c.098 0 .147-.05.147-.152V6.431c0-.1-.05-.151-.147-.151z" fill="#fff"/></symbol><symbol fill="none" viewBox="0 0 6 10" id="icons--question" xmlns="http://www.w3.org/2000/svg"><path d="M1.884 7.072c.008-.48.063-.858.163-1.135.1-.278.306-.586.616-.924l.79-.815c.339-.382.508-.793.508-1.232 0-.422-.11-.752-.332-.99-.221-.241-.543-.362-.966-.362-.41 0-.74.109-.99.326-.25.218-.374.51-.374.876H.182c.008-.652.24-1.178.694-1.576C1.335.837 1.931.636 2.663.636c.76 0 1.352.205 1.775.616.427.406.64.966.64 1.678 0 .705-.326 1.399-.978 2.083l-.658.652c-.294.326-.44.795-.44 1.407H1.883zm-.048 1.913c0-.18.054-.332.163-.452.113-.125.278-.188.495-.188.217 0 .382.063.495.188.113.12.17.271.17.452a.638.638 0 0 1-.17.453c-.113.117-.278.175-.495.175-.217 0-.382-.058-.495-.175a.652.652 0 0 1-.163-.453z" fill="#44342B"/></symbol><symbol style="position:absolute;width:0;height:0" overflow="hidden" viewBox="0 0 0 0" id="symbol-defs" xmlns="http://www.w3.org/2000/svg"/><symbol fill="none" viewBox="0 0 84 19" id="visa" xmlns="http://www.w3.org/2000/svg"><path d="M19.207 1.988h-8.808v14.608h8.808V1.988z" fill="#FF5F00"/><path d="M11.306 9.294a9.393 9.393 0 0 1 .919-4.06A9.25 9.25 0 0 1 14.8 1.99 9.072 9.072 0 0 0 10.124.058 9.026 9.026 0 0 0 5.149.94a9.198 9.198 0 0 0-3.755 3.427A9.396 9.396 0 0 0 0 9.295c0 1.743.483 3.45 1.394 4.928a9.198 9.198 0 0 0 3.755 3.427 9.026 9.026 0 0 0 4.975.882 9.071 9.071 0 0 0 4.676-1.933 9.247 9.247 0 0 1-2.576-3.244 9.392 9.392 0 0 1-.918-4.061z" fill="#EB001B"/><path d="M28.728 15.05v-.3h.127v-.061h-.302v.062h.12v.299h.055zm.587 0v-.361h-.091l-.107.258-.107-.258h-.091v.361h.066v-.274l.099.235h.068l.1-.234v.273h.063zm.288-5.758a9.395 9.395 0 0 1-1.394 4.929 9.199 9.199 0 0 1-3.757 3.427 9.027 9.027 0 0 1-9.651-1.053 9.265 9.265 0 0 0 2.575-3.244 9.409 9.409 0 0 0 0-8.12 9.264 9.264 0 0 0-2.575-3.244A9.072 9.072 0 0 1 19.478.053a9.026 9.026 0 0 1 4.974.88 9.199 9.199 0 0 1 3.757 3.428 9.395 9.395 0 0 1 1.394 4.928v.003z" fill="#F79E1B"/><path d="M55.228 15.841l2.308-13.332h3.605l-2.235 13.332h-3.678z" fill="#1A1F71"/><path d="M55.228 15.841l2.957-13.332h2.956l-2.235 13.332h-3.678zm16.73-13.183c-.721-.296-1.875-.592-3.317-.592-3.606 0-6.201 1.851-6.201 4.518 0 2 1.802 3.036 3.245 3.703 1.442.666 1.874 1.11 1.874 1.703 0 .89-1.153 1.333-2.163 1.333-1.442 0-2.235-.222-3.461-.74l-.505-.222-.505 3.036c.866.37 2.452.74 4.11.74 3.822 0 6.346-1.85 6.346-4.665 0-1.556-.937-2.74-3.1-3.703-1.299-.667-2.092-1.037-2.092-1.704 0-.592.65-1.185 2.091-1.185 1.226 0 2.091.222 2.74.519l.361.148.577-2.889z" fill="#1A1F71"/><path d="M71.958 2.658c-.721-.296-1.875-.592-3.317-.592-3.606 0-5.552 1.851-5.552 4.518 0 2 1.153 3.036 2.596 3.703 1.442.666 1.874 1.11 1.874 1.703 0 .89-1.153 1.333-2.163 1.333-1.442 0-2.235-.222-3.461-.74l-.505-.222-.505 3.036c.866.37 2.452.74 4.11.74 3.822 0 6.346-1.85 6.346-4.665 0-1.556-.937-2.74-3.1-3.703-1.299-.667-2.092-1.037-2.092-1.704 0-.592.65-1.185 2.091-1.185 1.226 0 2.091.222 2.74.519l.361.148.577-2.889zm6.201-.148c-.865 0-1.514.073-1.875.962l-5.408 12.369h3.894l.72-2.222h4.616l.433 2.222h3.46L80.972 2.509H78.16zM76.5 11.396c.217-.667 1.443-3.925 1.443-3.925s.288-.815.504-1.334l.217 1.26s.72 3.332.865 4.073h-3.028v-.074z" fill="#1A1F71"/><path d="M79.024 2.51c-.865 0-1.514.073-1.875.962l-6.273 12.369h3.894l.72-2.222h4.616l.433 2.222h3.46L80.972 2.509h-1.947zm-2.523 8.887c.288-.74 1.442-3.925 1.442-3.925s.288-.815.504-1.334l.217 1.26s.72 3.332.865 4.073h-3.028v-.074zm-27.907.445l-.36-1.925c-.65-2.222-2.74-4.667-5.048-5.852l3.245 11.851h3.894l5.84-13.332h-3.893l-3.678 9.258z" fill="#1A1F71"/><path d="M48.594 11.842l-.36-1.925c-.65-2.222-2.74-4.667-5.048-5.852l3.245 11.851h3.894l5.84-13.332h-3.172l-4.399 9.258z" fill="#1A1F71"/><path d="M38.571 2.51l.65.147c4.614 1.111 7.787 3.926 9.013 7.258L46.936 3.62c-.216-.889-.865-1.11-1.659-1.11h-6.706z" fill="#1A1F71"/><path d="M38.571 2.51c4.615 1.11 8.437 3.999 9.663 7.331l-1.226-5.258c-.216-.889-.937-1.407-1.73-1.407l-6.707-.667z" fill="#1A1F71"/><path d="M38.571 2.51c4.615 1.11 8.437 3.999 9.663 7.331l-.865-2.888c-.217-.889-.505-1.778-1.515-2.148L38.571 2.51z" fill="#1A1F71"/><path d="M52.2 11.398l-2.452-2.519-1.154 2.815-.288-1.852c-.65-2.222-2.74-4.666-5.048-5.851l3.245 11.85h3.894l1.803-4.443zm6.706 4.443l-3.1-3.258-.578 3.258h3.678zm8.293-4.592c.288.296.432.518.36.814 0 .89-1.153 1.334-2.163 1.334-1.442 0-2.235-.223-3.461-.741l-.505-.222-.505 3.036c.866.37 2.452.741 4.11.741 2.308 0 4.183-.666 5.264-1.851l-3.1-3.111zm4.181 4.591h3.39l.721-2.221h4.615l.433 2.222h3.46l-1.225-5.407-4.326-4.296.216 1.185s.72 3.333.865 4.074h-3.028c.288-.74 1.442-3.926 1.442-3.926s.288-.814.505-1.333" fill="#1A1F71"/></symbol></svg>