<svg aria-hidden="true" style="position: absolute; width: 0; height: 0; overflow: hidden;" version="1.1" xmlns="http://www.w3.org/2000/svg" xmlns:xlink="http://www.w3.org/1999/xlink">
<defs>
<symbol id="icon-info" viewBox="0 0 10 32">
<path d="M8.993 31.793h-5.847l-0.343-20.645h6.19v20.645zM2.804 4.334c0-0.874 0.289-1.593 0.867-2.157 0.591-0.565 1.391-0.847 2.399-0.847 0.995 0 1.788 0.282 2.379 0.847s0.887 1.284 0.887 2.157c0 0.887-0.302 1.613-0.907 2.177-0.591 0.564-1.378 0.847-2.359 0.847s-1.774-0.282-2.379-0.847c-0.591-0.564-0.887-1.29-0.887-2.177z"></path>
</symbol>
<symbol id="icon-check" viewBox="0 0 41 32">
<path d="M14.255 30.836c-0.582 0-1.455-0.291-2.036-0.873l-9.6-9.018c-1.164-1.164-1.164-2.909-0.291-4.073 1.164-1.164 2.909-1.164 4.073-0.291l7.564 6.982 20.945-21.527c1.164-1.164 2.909-1.164 4.073 0s1.164 2.909 0 4.073l-22.691 24.145c-0.582 0.291-1.164 0.582-2.036 0.582z"></path>
</symbol>
<symbol id="icon-arrow-left" viewBox="0 0 32 32">
<path d="M23.447 25.232l-10.347-10.347 10.347-10.347c0.247-0.247 0.443-0.54 0.576-0.863s0.202-0.668 0.202-1.017c0-0.349-0.069-0.695-0.202-1.017s-0.329-0.616-0.576-0.863c-0.247-0.247-0.54-0.443-0.863-0.576s-0.668-0.202-1.017-0.202c-0.349 0-0.695 0.069-1.017 0.202s-0.616 0.329-0.863 0.576l-12.24 12.24c-0.247 0.247-0.443 0.54-0.577 0.862s-0.203 0.668-0.203 1.018c0 0.349 0.069 0.695 0.203 1.018s0.33 0.616 0.577 0.862l12.24 12.24c1.040 1.040 2.72 1.040 3.76 0 1.013-1.040 1.040-2.747 0-3.787z"></path>
</symbol>
<symbol id="icon-arrow-right" viewBox="0 0 32 32">
<path d="M7.445 4.567l10.347 10.347-10.347 10.347c-0.247 0.247-0.443 0.54-0.576 0.863s-0.202 0.668-0.202 1.017c0 0.349 0.069 0.695 0.202 1.018s0.329 0.616 0.576 0.862c0.247 0.247 0.54 0.443 0.863 0.577s0.668 0.202 1.017 0.202c0.349 0 0.695-0.069 1.017-0.202s0.616-0.33 0.863-0.577l12.24-12.24c0.247-0.247 0.443-0.54 0.577-0.862s0.203-0.668 0.203-1.018c0-0.349-0.069-0.695-0.203-1.018s-0.33-0.616-0.577-0.862l-12.24-12.24c-1.040-1.040-2.72-1.040-3.76 0-1.013 1.040-1.040 2.747 0 3.787z"></path>
</symbol>
<symbol id="icon-calendar" viewBox="0 0 32 32">
<path d="M27.556 3.254h-4.444v-0.88c0-0.233-0.094-0.457-0.26-0.623s-0.393-0.258-0.628-0.258c-0.236 0-0.462 0.093-0.628 0.258s-0.26 0.389-0.26 0.623v0.88h-10.667v-0.88c0-0.233-0.094-0.457-0.26-0.623s-0.393-0.258-0.629-0.258c-0.236 0-0.462 0.093-0.629 0.258s-0.26 0.389-0.26 0.623v0.88h-4.444c-1.178 0.001-2.308 0.465-3.141 1.291s-1.302 1.944-1.303 3.111v17.607c0.001 1.167 0.47 2.286 1.303 3.111s1.963 1.289 3.141 1.291h23.111c1.178-0.001 2.308-0.465 3.141-1.291s1.302-1.944 1.303-3.111v-17.607c-0.001-1.167-0.47-2.286-1.303-3.111s-1.963-1.289-3.141-1.291zM30.222 25.263c-0.001 0.7-0.282 1.372-0.782 1.867s-1.178 0.774-1.885 0.774h-23.111c-0.707-0.001-1.385-0.279-1.885-0.774s-0.781-1.167-0.782-1.867v-13.205h28.444v13.205zM30.222 10.297h-28.444v-2.641c0.001-0.7 0.282-1.372 0.782-1.867s1.178-0.774 1.885-0.774h4.444v0.88c0 0.234 0.094 0.457 0.26 0.622s0.393 0.258 0.629 0.258c0.236 0 0.462-0.093 0.629-0.258s0.26-0.389 0.26-0.623v-0.88h10.667v0.88c0 0.234 0.094 0.457 0.26 0.623s0.393 0.258 0.628 0.258c0.236 0 0.462-0.093 0.628-0.258s0.26-0.389 0.26-0.623v-0.88h4.444c0.707 0.001 1.385 0.279 1.885 0.774s0.781 1.167 0.782 1.867v2.641z"></path>
</symbol>
<symbol id="icon-close" viewBox="0 0 32 32">
<path d="M30.426 1.858l-13.452 13.452 12.795 12.795-1.38 1.38-12.795-12.795-13.452 13.452-1.28-1.28 13.452-13.452-12.863-12.863 1.38-1.38 12.863 12.863 13.452-13.452 1.28 1.28z"></path>
</symbol>
<symbol id="icon-dropdown" viewBox="0 0 32 32">
<path d="M17.664 25.504c-0.792 1.187-2.537 1.187-3.328 0l-12.263-18.394c-0.886-1.329 0.067-3.109 1.664-3.109h24.526c1.597 0 2.55 1.78 1.664 3.109l-12.263 18.394z"></path>
</symbol>
<symbol id="icon-plus" viewBox="0 0 32 32">
<path d="M17.406 0.403h-2.511c-0.223 0-0.335 0.116-0.335 0.347v30.5c0 0.231 0.112 0.347 0.335 0.347h2.511c0.223 0 0.335-0.116 0.335-0.347v-30.5c0-0.231-0.112-0.347-0.335-0.347z"></path>
<path d="M30.211 14.353h-28.121c-0.223 0-0.335 0.116-0.335 0.347v2.599c0 0.231 0.112 0.347 0.335 0.347h28.121c0.223 0 0.335-0.116 0.335-0.347v-2.599c0-0.231-0.112-0.347-0.335-0.347z"></path>
</symbol>
<symbol id="icon-question" viewBox="0 0 32 32">
<path d="M12.43 22.629c0.026-1.533 0.2-2.743 0.522-3.632s0.979-1.874 1.97-2.956l2.531-2.608c1.082-1.223 1.623-2.537 1.623-3.941 0-1.352-0.354-2.408-1.063-3.168-0.708-0.773-1.739-1.159-3.091-1.159-1.314 0-2.37 0.348-3.168 1.043s-1.198 1.629-1.198 2.801h-3.574c0.026-2.086 0.766-3.767 2.222-5.042 1.468-1.288 3.374-1.932 5.718-1.932 2.434 0 4.327 0.657 5.68 1.97 1.365 1.301 2.048 3.091 2.048 5.37 0 2.254-1.043 4.475-3.13 6.665l-2.106 2.086c-0.94 1.043-1.41 2.544-1.41 4.501h-3.574zM12.275 28.753c0-0.58 0.174-1.063 0.522-1.449 0.361-0.399 0.889-0.599 1.584-0.599s1.223 0.2 1.584 0.599c0.361 0.386 0.541 0.869 0.541 1.449s-0.18 1.063-0.541 1.449c-0.361 0.373-0.889 0.56-1.584 0.56s-1.223-0.187-1.584-0.56c-0.348-0.386-0.522-0.869-0.522-1.449z"></path>
</symbol>
</defs>
</svg>
