<svg width="84" height="19" viewBox="0 0 84 19" fill="none" xmlns="http://www.w3.org/2000/svg">
<path d="M19.2069 1.98828H10.3994V16.596H19.2069V1.98828Z" fill="#FF5F00"/>
<path d="M11.3065 9.29352C11.3054 7.8869 11.6194 6.49845 12.2247 5.23326C12.8301 3.96807 13.7109 2.85928 14.8005 1.9908C13.451 0.91377 11.8303 0.244029 10.1236 0.0581221C8.41698 -0.127785 6.69326 0.177643 5.14948 0.939499C3.60569 1.70135 2.30411 2.8889 1.39351 4.36641C0.482899 5.84392 0 7.55179 0 9.29481C0 11.0378 0.482899 12.7457 1.39351 14.2232C2.30411 15.7007 3.60569 16.8883 5.14948 17.6501C6.69326 18.412 8.41698 18.7174 10.1236 18.5315C11.8303 18.3456 13.451 17.6759 14.8005 16.5988C13.7105 15.7301 12.8295 14.6209 12.2242 13.3552C11.6188 12.0895 11.305 10.7006 11.3065 9.29352Z" fill="#EB001B"/>
<path d="M28.7281 15.05V14.7506H28.8551V14.6887H28.5527V14.7506H28.6722V15.05H28.7281ZM29.3151 15.05V14.6887H29.2236L29.1168 14.9468L29.0101 14.6887H28.9186V15.05H28.9847V14.7765L29.0838 15.0113H29.1524L29.2515 14.7765V15.05H29.3151Z" fill="#F79E1B"/>
<path d="M29.6026 9.29199C29.6026 11.0351 29.1196 12.7431 28.2088 14.2206C27.298 15.6982 25.9962 16.8857 24.4523 17.6475C22.9083 18.4092 21.1844 18.7144 19.4777 18.5283C17.7709 18.3421 16.1502 17.672 14.8008 16.5947C15.89 15.7254 16.7705 14.6163 17.376 13.3511C17.9815 12.0858 18.2961 10.6974 18.2961 9.2907C18.2961 7.88395 17.9815 6.49557 17.376 5.23032C16.7705 3.96506 15.89 2.85598 14.8008 1.98674C16.1502 0.909375 17.7709 0.239312 19.4777 0.0531397C21.1844 -0.133033 22.9083 0.172196 24.4523 0.933939C25.9962 1.69568 27.298 2.8832 28.2088 4.36075C29.1196 5.8383 29.6026 7.54626 29.6026 9.28941V9.29199Z" fill="#F79E1B"/>
<path d="M55.2285 15.841L57.536 2.50928H61.1414L58.9061 15.841H55.2285Z" fill="#1A1F71"/>
<path d="M55.2285 15.841L58.185 2.50928H61.1414L58.9061 15.841H55.2285Z" fill="#1A1F71"/>
<path d="M71.9579 2.65819C71.2368 2.36193 70.0831 2.06567 68.6409 2.06567C65.0355 2.06567 62.4396 3.91728 62.4396 6.5836C62.4396 8.58333 64.2423 9.62024 65.6845 10.2868C67.1266 10.9534 67.5593 11.3978 67.5593 11.9903C67.5593 12.8791 66.4056 13.3235 65.396 13.3235C63.9539 13.3235 63.1607 13.1013 61.9348 12.5828L61.4301 12.3606L60.9253 15.3973C61.7906 15.7676 63.377 16.1379 65.0355 16.1379C68.8572 16.1379 71.3811 14.2863 71.3811 11.4718C71.3811 9.91649 70.4436 8.73146 68.2804 7.76863C66.9824 7.10205 66.1892 6.73173 66.1892 6.06515C66.1892 5.47263 66.8382 4.88012 68.2804 4.88012C69.5062 4.88012 70.3715 5.10231 71.0205 5.39857L71.3811 5.5467L71.9579 2.65819Z" fill="#1A1F71"/>
<path d="M71.9579 2.65819C71.2368 2.36193 70.0831 2.06567 68.6409 2.06567C65.0355 2.06567 63.0886 3.91728 63.0886 6.5836C63.0886 8.58333 64.2423 9.62024 65.6845 10.2868C67.1266 10.9534 67.5593 11.3978 67.5593 11.9903C67.5593 12.8791 66.4056 13.3235 65.396 13.3235C63.9539 13.3235 63.1607 13.1013 61.9348 12.5828L61.4301 12.3606L60.9253 15.3973C61.7906 15.7676 63.377 16.1379 65.0355 16.1379C68.8572 16.1379 71.3811 14.2863 71.3811 11.4718C71.3811 9.91649 70.4436 8.73146 68.2804 7.76863C66.9824 7.10205 66.1892 6.73173 66.1892 6.06515C66.1892 5.47263 66.8382 4.88012 68.2804 4.88012C69.5062 4.88012 70.3715 5.10231 71.0205 5.39857L71.3811 5.5467L71.9579 2.65819Z" fill="#1A1F71"/>
<path d="M78.159 2.50928C77.2937 2.50928 76.6447 2.58334 76.2841 3.47213L70.876 15.841H74.7699L75.4909 13.6191H80.1059L80.5386 15.841H83.9998L80.9712 2.50928H78.159ZM76.5005 11.3971C76.7168 10.7305 77.9426 7.47164 77.9426 7.47164C77.9426 7.47164 78.2311 6.65692 78.4474 6.13847L78.6637 7.39758C78.6637 7.39758 79.3848 10.7305 79.529 11.4712H76.5005V11.3971Z" fill="#1A1F71"/>
<path d="M79.0243 2.50928C78.159 2.50928 77.51 2.58334 77.1494 3.47213L70.876 15.841H74.7699L75.4909 13.6191H80.1059L80.5386 15.841H83.9998L80.9712 2.50928H79.0243ZM76.5005 11.3971C76.7889 10.6564 77.9426 7.47164 77.9426 7.47164C77.9426 7.47164 78.2311 6.65692 78.4474 6.13847L78.6637 7.39758C78.6637 7.39758 79.3848 10.7305 79.529 11.4712H76.5005V11.3971Z" fill="#1A1F71"/>
<path d="M48.5942 11.8424L48.2336 9.91665C47.5847 7.69463 45.4935 5.25041 43.186 4.06533L46.4309 15.9161H50.3248L56.1656 2.58398H52.2717L48.5942 11.8424Z" fill="#1A1F71"/>
<path d="M48.5942 11.8424L48.2336 9.91665C47.5847 7.69463 45.4935 5.25041 43.186 4.06533L46.4309 15.9161H50.3248L56.1656 2.58398H52.9928L48.5942 11.8424Z" fill="#1A1F71"/>
<path d="M38.5713 2.50928L39.2203 2.6574C43.8352 3.76832 47.008 6.58266 48.2339 9.91542L46.9359 3.6202C46.7196 2.73146 46.0706 2.50928 45.2774 2.50928H38.5713Z" fill="#1A1F71"/>
<path d="M38.5713 2.50928C43.1862 3.62019 47.008 6.50856 48.2339 9.84129L47.008 4.58298C46.7917 3.69425 46.0706 3.17583 45.2774 3.17583L38.5713 2.50928Z" fill="#1A1F71"/>
<path d="M38.5713 2.50928C43.1862 3.62019 47.008 6.50856 48.2339 9.84129L47.3686 6.95292C47.1522 6.06419 46.8638 5.17546 45.8543 4.80516L38.5713 2.50928Z" fill="#1A1F71"/>
<path d="M52.1998 11.3977L49.7481 8.8794L48.5944 11.694L48.3059 9.84227C47.6569 7.62026 45.5658 5.17604 43.2583 3.99097L46.5032 15.8417H50.3971L52.1998 11.3977Z" fill="#1A1F71"/>
<path d="M58.906 15.8415L55.8054 12.583L55.2285 15.8415H58.906Z" fill="#1A1F71"/>
<path d="M67.1987 11.2488C67.4872 11.545 67.6314 11.7672 67.5593 12.0635C67.5593 12.9522 66.4056 13.3966 65.396 13.3966C63.9539 13.3966 63.1607 13.1744 61.9348 12.656L61.4301 12.4338L60.9253 15.4704C61.7906 15.8407 63.377 16.2111 65.0355 16.2111C67.343 16.2111 69.2178 15.5445 70.2994 14.3595L67.1987 11.2488Z" fill="#1A1F71"/>
<path d="M71.3809 15.8408H74.77L75.4911 13.6188H80.106L80.5387 15.8408H83.9999L82.7741 10.434L78.4475 6.13818L78.6639 7.32323C78.6639 7.32323 79.3849 10.6562 79.5292 11.3968H76.5006C76.789 10.6562 77.9428 7.47136 77.9428 7.47136C77.9428 7.47136 78.2312 6.65664 78.4475 6.13818" fill="#1A1F71"/>
</svg>
